<svg xmlns="http://www.w3.org/2000/svg" width="1600" height="1530" viewBox="0 0 1600 1530" aria-label="AI weekly trend cells"><rect x="0" y="0" width="1600" height="1530" fill="#F0ECE1"/><text x="70" y="80" fill="#22241F" font-size="18" font-weight="800" text-anchor="start">02 / TREND CELLS</text><text x="70" y="170" fill="#22241F" font-size="54" font-weight="900"><tspan x="70" dy="0">六条趋势，不做新闻复述，做约束变化。</tspan></text><text x="74" y="286" fill="#6A6D60" font-size="22" font-weight="520" text-anchor="start">每张卡先给规则，再给变异，最后给一个可判断的形态。</text><rect x="70" y="360" width="468" height="530" fill="#F0ECE1" stroke="#22241F" stroke-width="2"/><rect x="104" y="394" width="28" height="28" fill="#E78543" rx="4"/><rect x="144" y="394" width="20" height="20" fill="#8A6FCC" rx="4"/><rect x="184" y="394" width="12" height="12" fill="#E78543" rx="4"/><rect x="104" y="434" width="20" height="20" fill="#D6B956" rx="4"/><rect x="144" y="434" width="12" height="12" fill="#8A6FCC" rx="4"/><rect x="184" y="434" width="28" height="28" fill="#4BAA71" rx="4"/><text x="280" y="418" fill="#6A6D60" font-size="14" font-weight="800" text-anchor="start">TREND 01</text><text x="280" y="456" fill="#22241F" font-size="24" font-weight="800" text-anchor="start">上下文</text><text x="94" y="564" fill="#22241F" font-size="23" font-weight="850"><tspan x="94" dy="0">上下文工程从写更多规则，变成授权成</tspan><tspan x="94" dy="27">熟模型</tspan></text><text x="94" y="692" fill="#6A6D60" font-size="16" font-weight="520"><tspan x="94" dy="0">该删的不是上下文，而是模型能自己推断的废上下文。真</tspan><tspan x="94" dy="22">正贵的是团队偏好、验证流程和真实参考物。</tspan></text><text x="94" y="816" fill="#6A6D60" font-size="14" font-weight="800" text-anchor="start">SIGNAL</text><rect x="164" y="832" width="138.0" height="8" fill="#E78543"/><text x="94" y="840" fill="#6A6D60" font-size="12" font-weight="700" text-anchor="start">能力</text><rect x="164" y="848" width="108.0" height="8" fill="#E78543"/><text x="94" y="856" fill="#6A6D60" font-size="12" font-weight="700" text-anchor="start">成本</text><rect x="164" y="864" width="129.0" height="8" fill="#E78543"/><text x="94" y="872" fill="#6A6D60" font-size="12" font-weight="700" text-anchor="start">采用</text><text x="344" y="852" fill="#22241F" font-size="11" font-weight="700" text-anchor="start">Opus 5</text><rect x="570" y="360" width="468" height="530" fill="#F0ECE1" stroke="#22241F" stroke-width="2"/><rect x="604" y="394" width="20" height="20" fill="#4BAA71" rx="4"/><rect x="644" y="394" width="12" height="12" fill="#D6B956" rx="4"/><rect x="684" y="394" width="28" height="28" fill="#4BAA71" rx="4"/><rect x="604" y="434" width="12" height="12" fill="#8A6FCC" rx="4"/><rect x="644" y="434" width="28" height="28" fill="#D6B956" rx="4"/><rect x="684" y="434" width="20" height="20" fill="#8A6FCC" rx="4"/><text x="780" y="418" fill="#6A6D60" font-size="14" font-weight="800" text-anchor="start">TREND 02</text><text x="780" y="456" fill="#22241F" font-size="24" font-weight="800" text-anchor="start">运行时</text><text x="594" y="564" fill="#22241F" font-size="23" font-weight="850"><tspan x="594" dy="0">Agent 安全从发布前评测变成运行时</tspan><tspan x="594" dy="27">边界</tspan></text><text x="594" y="692" fill="#6A6D60" font-size="16" font-weight="520"><tspan x="594" dy="0">治理单位不再只是模型，而是身份、权限、网络、日志、</tspan><tspan x="594" dy="22">审批和回滚。</tspan></text><text x="594" y="816" fill="#6A6D60" font-size="14" font-weight="800" text-anchor="start">SIGNAL</text><rect x="664" y="832" width="141.0" height="8" fill="#8A6FCC"/><text x="594" y="840" fill="#6A6D60" font-size="12" font-weight="700" text-anchor="start">监管</text><rect x="664" y="848" width="114.0" height="8" fill="#8A6FCC"/><text x="594" y="856" fill="#6A6D60" font-size="12" font-weight="700" text-anchor="start">采用</text><rect x="664" y="864" width="96.0" height="8" fill="#8A6FCC"/><text x="594" y="872" fill="#6A6D60" font-size="12" font-weight="700" text-anchor="start">成本</text><text x="844" y="852" fill="#22241F" font-size="11" font-weight="700" text-anchor="start">HF incident</text><rect x="1070" y="360" width="468" height="530" fill="#F0ECE1" stroke="#22241F" stroke-width="2"/><rect x="1104" y="394" width="12" height="12" fill="#8A6FCC" rx="4"/><rect x="1144" y="394" width="28" height="28" fill="#4BAA71" rx="4"/><rect x="1184" y="394" width="20" height="20" fill="#8A6FCC" rx="4"/><rect x="1104" y="434" width="28" height="28" fill="#4BAA71" rx="4"/><rect x="1144" y="434" width="20" height="20" fill="#4BAA71" rx="4"/><rect x="1184" y="434" width="12" height="12" fill="#D6B956" rx="4"/><text x="1280" y="418" fill="#6A6D60" font-size="14" font-weight="800" text-anchor="start">TREND 03</text><text x="1280" y="456" fill="#22241F" font-size="24" font-weight="800" text-anchor="start">系统</text><text x="1094" y="564" fill="#22241F" font-size="23" font-weight="850"><tspan x="1094" dy="0">竞争单位变成模型、Harness、验证器</tspan><tspan x="1094" dy="27">和轨迹</tspan></text><text x="1094" y="692" fill="#6A6D60" font-size="16" font-weight="520"><tspan x="1094" dy="0">最强模型不是单点答案。可复盘的工作流水线，才会改写</tspan><tspan x="1094" dy="22">团队规模和代码产出关系。</tspan></text><text x="1094" y="816" fill="#6A6D60" font-size="14" font-weight="800" text-anchor="start">SIGNAL</text><rect x="1164" y="832" width="126.0" height="8" fill="#4BAA71"/><text x="1094" y="840" fill="#6A6D60" font-size="12" font-weight="700" text-anchor="start">能力</text><rect x="1164" y="848" width="135.0" height="8" fill="#4BAA71"/><text x="1094" y="856" fill="#6A6D60" font-size="12" font-weight="700" text-anchor="start">采用</text><rect x="1164" y="864" width="102.0" height="8" fill="#4BAA71"/><text x="1094" y="872" fill="#6A6D60" font-size="12" font-weight="700" text-anchor="start">成本</text><text x="1344" y="852" fill="#22241F" font-size="11" font-weight="700" text-anchor="start">Hyra</text><rect x="70" y="930" width="468" height="530" fill="#F0ECE1" stroke="#22241F" stroke-width="2"/><rect x="104" y="964" width="28" height="28" fill="#D6B956" rx="4"/><rect x="144" y="964" width="20" height="20" fill="#4BAA71" rx="4"/><rect x="184" y="964" width="12" height="12" fill="#D6B956" rx="4"/><rect x="104" y="1004" width="20" height="20" fill="#8A6FCC" rx="4"/><rect x="144" y="1004" width="12" height="12" fill="#4BAA71" rx="4"/><rect x="184" y="1004" width="28" height="28" fill="#5E8FD4" rx="4"/><text x="280" y="988" fill="#6A6D60" font-size="14" font-weight="800" text-anchor="start">TREND 04</text><text x="280" y="1026" fill="#22241F" font-size="24" font-weight="800" text-anchor="start">交付物</text><text x="94" y="1134" fill="#22241F" font-size="23" font-weight="850"><tspan x="94" dy="0">入口从聊天框转向 Office、画布和设</tspan><tspan x="94" dy="27">计台</tspan></text><text x="94" y="1262" fill="#6A6D60" font-size="16" font-weight="520"><tspan x="94" dy="0">谁离最终交付物最近，谁就更容易拿到上下文、反馈和付</tspan><tspan x="94" dy="22">费。聊天框只是入口之一。</tspan></text><text x="94" y="1386" fill="#6A6D60" font-size="14" font-weight="800" text-anchor="start">SIGNAL</text><rect x="164" y="1402" width="138.0" height="8" fill="#5E8FD4"/><text x="94" y="1410" fill="#6A6D60" font-size="12" font-weight="700" text-anchor="start">分发</text><rect x="164" y="1418" width="120.0" height="8" fill="#5E8FD4"/><text x="94" y="1426" fill="#6A6D60" font-size="12" font-weight="700" text-anchor="start">采用</text><rect x="164" y="1434" width="105.0" height="8" fill="#5E8FD4"/><text x="94" y="1442" fill="#6A6D60" font-size="12" font-weight="700" text-anchor="start">能力</text><text x="344" y="1422" fill="#22241F" font-size="11" font-weight="700" text-anchor="start">Qwen-Image</text><rect x="570" y="930" width="468" height="530" fill="#F0ECE1" stroke="#22241F" stroke-width="2"/><rect x="604" y="964" width="20" height="20" fill="#D6B956" rx="4"/><rect x="644" y="964" width="12" height="12" fill="#8A6FCC" rx="4"/><rect x="684" y="964" width="28" height="28" fill="#D6B956" rx="4"/><rect x="604" y="1004" width="12" height="12" fill="#D6B956" rx="4"/><rect x="644" y="1004" width="28" height="28" fill="#8A6FCC" rx="4"/><rect x="684" y="1004" width="20" height="20" fill="#4BAA71" rx="4"/><text x="780" y="988" fill="#6A6D60" font-size="14" font-weight="800" text-anchor="start">TREND 05</text><text x="780" y="1026" fill="#22241F" font-size="24" font-weight="800" text-anchor="start">数据</text><text x="594" y="1134" fill="#22241F" font-size="23" font-weight="850"><tspan x="594" dy="0">下一轮训练数据红利来自真实工作轨迹</tspan></text><text x="594" y="1262" fill="#6A6D60" font-size="16" font-weight="520"><tspan x="594" dy="0">网页文本告诉模型世界有什么；轨迹数据告诉模型工作怎</tspan><tspan x="594" dy="22">么做完。</tspan></text><text x="594" y="1386" fill="#6A6D60" font-size="14" font-weight="800" text-anchor="start">SIGNAL</text><rect x="664" y="1402" width="117.0" height="8" fill="#D6B956"/><text x="594" y="1410" fill="#6A6D60" font-size="12" font-weight="700" text-anchor="start">供给</text><rect x="664" y="1418" width="126.0" height="8" fill="#D6B956"/><text x="594" y="1426" fill="#6A6D60" font-size="12" font-weight="700" text-anchor="start">采用</text><rect x="664" y="1434" width="87.0" height="8" fill="#D6B956"/><text x="594" y="1442" fill="#6A6D60" font-size="12" font-weight="700" text-anchor="start">监管</text><text x="844" y="1422" fill="#22241F" font-size="11" font-weight="700" text-anchor="start">workflow data</text><rect x="1070" y="930" width="468" height="530" fill="#F0ECE1" stroke="#22241F" stroke-width="2"/><rect x="1104" y="964" width="12" height="12" fill="#4BAA71" rx="4"/><rect x="1144" y="964" width="28" height="28" fill="#D6B956" rx="4"/><rect x="1184" y="964" width="20" height="20" fill="#4BAA71" rx="4"/><rect x="1104" y="1004" width="28" height="28" fill="#4BAA71" rx="4"/><rect x="1144" y="1004" width="20" height="20" fill="#D6B956" rx="4"/><rect x="1184" y="1004" width="12" height="12" fill="#8A6FCC" rx="4"/><text x="1280" y="988" fill="#6A6D60" font-size="14" font-weight="800" text-anchor="start">TREND 06</text><text x="1280" y="1026" fill="#22241F" font-size="24" font-weight="800" text-anchor="start">基础设施</text><text x="1094" y="1134" fill="#22241F" font-size="23" font-weight="850"><tspan x="1094" dy="0">成本竞争从 token 单价扩展到工业账</tspan><tspan x="1094" dy="27">本</tspan></text><text x="1094" y="1262" fill="#6A6D60" font-size="16" font-weight="520"><tspan x="1094" dy="0">AI 越来越像工业系统，胜负取决于全栈单位任务成本。</tspan></text><text x="1094" y="1386" fill="#6A6D60" font-size="14" font-weight="800" text-anchor="start">SIGNAL</text><rect x="1164" y="1402" width="141.0" height="8" fill="#4BAA71"/><text x="1094" y="1410" fill="#6A6D60" font-size="12" font-weight="700" text-anchor="start">成本</text><rect x="1164" y="1418" width="144.0" height="8" fill="#4BAA71"/><text x="1094" y="1426" fill="#6A6D60" font-size="12" font-weight="700" text-anchor="start">供给</text><rect x="1164" y="1434" width="105.0" height="8" fill="#4BAA71"/><text x="1094" y="1442" fill="#6A6D60" font-size="12" font-weight="700" text-anchor="start">监管</text><text x="1344" y="1422" fill="#22241F" font-size="11" font-weight="700" text-anchor="start">Gemini Flash</text></svg>
