<svg xmlns="http://www.w3.org/2000/svg" width="1600" height="1080" viewBox="0 0 1600 1080" aria-label="AI weekly migration matrix"><rect x="0" y="0" width="1600" height="1080" fill="#F0ECE1"/><text x="70" y="80" fill="#22241F" font-size="18" font-weight="800" text-anchor="start">03 / MIGRATION MATRIX</text><text x="70" y="170" fill="#22241F" font-size="52" font-weight="900"><tspan x="70" dy="0">从旧问题到新判断，行业正在换一套坐标系。</tspan></text><text x="74" y="288" fill="#6A6D60" font-size="22" font-weight="520" text-anchor="start">六条迁移压成一张可扫读的高密度台账。</text><rect x="70" y="350" width="68" height="70" fill="#22241F"/><text x="84" y="394" fill="#F0ECE1" font-size="15" font-weight="800" text-anchor="start">#</text><rect x="138" y="350" width="236" height="70" fill="#22241F"/><text x="152" y="394" fill="#F0ECE1" font-size="15" font-weight="800" text-anchor="start">旧问题</text><rect x="374" y="350" width="256" height="70" fill="#22241F"/><text x="388" y="394" fill="#F0ECE1" font-size="15" font-weight="800" text-anchor="start">新判断</text><rect x="630" y="350" width="470" height="70" fill="#22241F"/><text x="644" y="394" fill="#F0ECE1" font-size="15" font-weight="800" text-anchor="start">迁移含义</text><rect x="1100" y="350" width="210" height="70" fill="#22241F"/><text x="1114" y="394" fill="#F0ECE1" font-size="15" font-weight="800" text-anchor="start">变量</text><rect x="1310" y="350" width="280" height="70" fill="#22241F"/><text x="1324" y="394" fill="#F0ECE1" font-size="15" font-weight="800" text-anchor="start">下周观察</text><rect x="70" y="420" width="68" height="94" fill="#F0ECE1" stroke="#22241F" stroke-width="1"/><circle cx="104" cy="466" r="22" fill="#E78543"/><text x="104" y="472" fill="#22241F" font-size="16" font-weight="900" text-anchor="middle">01</text><rect x="138" y="420" width="236" height="94" fill="#F0ECE1" stroke="#22241F" stroke-width="1"/><text x="152" y="452" fill="#22241F" font-size="15" font-weight="750"><tspan x="152" dy="0">Prompt scaffolding</tspan></text><rect x="374" y="420" width="256" height="94" fill="#F0ECE1" stroke="#22241F" stroke-width="1"/><text x="388" y="452" fill="#22241F" font-size="15" font-weight="750"><tspan x="388" dy="0">→ Mature agent management</tspan></text><rect x="630" y="420" width="470" height="94" fill="#F0ECE1" stroke="#22241F" stroke-width="1"/><text x="644" y="452" fill="#6A6D60" font-size="15" font-weight="520"><tspan x="644" dy="0">给成熟模型目标、边界、参考物和复盘机制</tspan></text><rect x="1100" y="420" width="210" height="94" fill="#F0ECE1" stroke="#22241F" stroke-width="1"/><text x="1114" y="452" fill="#6A6D60" font-size="15" font-weight="520"><tspan x="1114" dy="0">能力 / 成本 / 采用</tspan></text><rect x="1310" y="420" width="280" height="94" fill="#F0ECE1" stroke="#22241F" stroke-width="1"/><text x="1324" y="452" fill="#6A6D60" font-size="15" font-weight="520"><tspan x="1324" dy="0">常驻上下文是否变短</tspan></text><rect x="70" y="514" width="68" height="94" fill="#E1DCCC" stroke="#22241F" stroke-width="1"/><circle cx="104" cy="560" r="22" fill="#8A6FCC"/><text x="104" y="566" fill="#22241F" font-size="16" font-weight="900" text-anchor="middle">02</text><rect x="138" y="514" width="236" height="94" fill="#E1DCCC" stroke="#22241F" stroke-width="1"/><text x="152" y="546" fill="#22241F" font-size="15" font-weight="750"><tspan x="152" dy="0">Pre-release eval</tspan></text><rect x="374" y="514" width="256" height="94" fill="#E1DCCC" stroke="#22241F" stroke-width="1"/><text x="388" y="546" fill="#22241F" font-size="15" font-weight="750"><tspan x="388" dy="0">→ Runtime boundary</tspan></text><rect x="630" y="514" width="470" height="94" fill="#E1DCCC" stroke="#22241F" stroke-width="1"/><text x="644" y="546" fill="#6A6D60" font-size="15" font-weight="520"><tspan x="644" dy="0">把安全治理搬到身份、权限、日志、审批和回滚</tspan></text><rect x="1100" y="514" width="210" height="94" fill="#E1DCCC" stroke="#22241F" stroke-width="1"/><text x="1114" y="546" fill="#6A6D60" font-size="15" font-weight="520"><tspan x="1114" dy="0">监管 / 采用</tspan></text><rect x="1310" y="514" width="280" height="94" fill="#E1DCCC" stroke="#22241F" stroke-width="1"/><text x="1324" y="546" fill="#6A6D60" font-size="15" font-weight="520"><tspan x="1324" dy="0">是否记录工具调用轨迹</tspan></text><rect x="70" y="608" width="68" height="94" fill="#F0ECE1" stroke="#22241F" stroke-width="1"/><circle cx="104" cy="654" r="22" fill="#4BAA71"/><text x="104" y="660" fill="#22241F" font-size="16" font-weight="900" text-anchor="middle">03</text><rect x="138" y="608" width="236" height="94" fill="#F0ECE1" stroke="#22241F" stroke-width="1"/><text x="152" y="640" fill="#22241F" font-size="15" font-weight="750"><tspan x="152" dy="0">Model ranking</tspan></text><rect x="374" y="608" width="256" height="94" fill="#F0ECE1" stroke="#22241F" stroke-width="1"/><text x="388" y="640" fill="#22241F" font-size="15" font-weight="750"><tspan x="388" dy="0">→ Model-system pair</tspan></text><rect x="630" y="608" width="470" height="94" fill="#F0ECE1" stroke="#22241F" stroke-width="1"/><text x="644" y="640" fill="#6A6D60" font-size="15" font-weight="520"><tspan x="644" dy="0">比较模型和 harness、验证器、memory 的组合能力</tspan></text><rect x="1100" y="608" width="210" height="94" fill="#F0ECE1" stroke="#22241F" stroke-width="1"/><text x="1114" y="640" fill="#6A6D60" font-size="15" font-weight="520"><tspan x="1114" dy="0">能力 / 采用 / 成本</tspan></text><rect x="1310" y="608" width="280" height="94" fill="#F0ECE1" stroke="#22241F" stroke-width="1"/><text x="1324" y="640" fill="#6A6D60" font-size="15" font-weight="520"><tspan x="1324" dy="0">采购对象是否变成系统包</tspan></text><rect x="70" y="702" width="68" height="94" fill="#E1DCCC" stroke="#22241F" stroke-width="1"/><circle cx="104" cy="748" r="22" fill="#5E8FD4"/><text x="104" y="754" fill="#22241F" font-size="16" font-weight="900" text-anchor="middle">04</text><rect x="138" y="702" width="236" height="94" fill="#E1DCCC" stroke="#22241F" stroke-width="1"/><text x="152" y="734" fill="#22241F" font-size="15" font-weight="750"><tspan x="152" dy="0">Chat interface</tspan></text><rect x="374" y="702" width="256" height="94" fill="#E1DCCC" stroke="#22241F" stroke-width="1"/><text x="388" y="734" fill="#22241F" font-size="15" font-weight="750"><tspan x="388" dy="0">→ Artifact surface</tspan></text><rect x="630" y="702" width="470" height="94" fill="#E1DCCC" stroke="#22241F" stroke-width="1"/><text x="644" y="734" fill="#6A6D60" font-size="15" font-weight="520"><tspan x="644" dy="0">让 AI 进入 Excel、Outlook、画布、图片和设计台</tspan></text><rect x="1100" y="702" width="210" height="94" fill="#E1DCCC" stroke="#22241F" stroke-width="1"/><text x="1114" y="734" fill="#6A6D60" font-size="15" font-weight="520"><tspan x="1114" dy="0">分发 / 采用</tspan></text><rect x="1310" y="702" width="280" height="94" fill="#E1DCCC" stroke="#22241F" stroke-width="1"/><text x="1324" y="734" fill="#6A6D60" font-size="15" font-weight="520"><tspan x="1324" dy="0">交付物是否成为入口</tspan></text><rect x="70" y="796" width="68" height="94" fill="#F0ECE1" stroke="#22241F" stroke-width="1"/><circle cx="104" cy="842" r="22" fill="#D6B956"/><text x="104" y="848" fill="#22241F" font-size="16" font-weight="900" text-anchor="middle">05</text><rect x="138" y="796" width="236" height="94" fill="#F0ECE1" stroke="#22241F" stroke-width="1"/><text x="152" y="828" fill="#22241F" font-size="15" font-weight="750"><tspan x="152" dy="0">Web corpus</tspan></text><rect x="374" y="796" width="256" height="94" fill="#F0ECE1" stroke="#22241F" stroke-width="1"/><text x="388" y="828" fill="#22241F" font-size="15" font-weight="750"><tspan x="388" dy="0">→ Workflow trajectory</tspan></text><rect x="630" y="796" width="470" height="94" fill="#F0ECE1" stroke="#22241F" stroke-width="1"/><text x="644" y="828" fill="#6A6D60" font-size="15" font-weight="520"><tspan x="644" dy="0">从内容学习转向过程学习和验收轨迹</tspan></text><rect x="1100" y="796" width="210" height="94" fill="#F0ECE1" stroke="#22241F" stroke-width="1"/><text x="1114" y="828" fill="#6A6D60" font-size="15" font-weight="520"><tspan x="1114" dy="0">供给 / 采用</tspan></text><rect x="1310" y="796" width="280" height="94" fill="#F0ECE1" stroke="#22241F" stroke-width="1"/><text x="1324" y="828" fill="#6A6D60" font-size="15" font-weight="520"><tspan x="1324" dy="0">是否沉淀可验证任务轨迹</tspan></text><rect x="70" y="890" width="68" height="94" fill="#E1DCCC" stroke="#22241F" stroke-width="1"/><circle cx="104" cy="936" r="22" fill="#4BAA71"/><text x="104" y="942" fill="#22241F" font-size="16" font-weight="900" text-anchor="middle">06</text><rect x="138" y="890" width="236" height="94" fill="#E1DCCC" stroke="#22241F" stroke-width="1"/><text x="152" y="922" fill="#22241F" font-size="15" font-weight="750"><tspan x="152" dy="0">Token price</tspan></text><rect x="374" y="890" width="256" height="94" fill="#E1DCCC" stroke="#22241F" stroke-width="1"/><text x="388" y="922" fill="#22241F" font-size="15" font-weight="750"><tspan x="388" dy="0">→ Industrial ledger</tspan></text><rect x="630" y="890" width="470" height="94" fill="#E1DCCC" stroke="#22241F" stroke-width="1"/><text x="644" y="922" fill="#6A6D60" font-size="15" font-weight="520"><tspan x="644" dy="0">从 API 价格表迁移到电力、租赁和债务结构</tspan></text><rect x="1100" y="890" width="210" height="94" fill="#E1DCCC" stroke="#22241F" stroke-width="1"/><text x="1114" y="922" fill="#6A6D60" font-size="15" font-weight="520"><tspan x="1114" dy="0">成本 / 供给</tspan></text><rect x="1310" y="890" width="280" height="94" fill="#E1DCCC" stroke="#22241F" stroke-width="1"/><text x="1324" y="922" fill="#6A6D60" font-size="15" font-weight="520"><tspan x="1324" dy="0">单位任务成本是否全栈计量</tspan></text></svg>
